<?xml version="1.0" encoding="UTF-8" standalone="no"?>
<!-- Generator: Adobe Illustrator 16.0.0, SVG Export Plug-In . SVG Version: 6.00 Build 0)  -->

<svg
   xmlns:dc="http://purl.org/dc/elements/1.1/"
   xmlns:cc="http://creativecommons.org/ns#"
   xmlns:rdf="http://www.w3.org/1999/02/22-rdf-syntax-ns#"
   xmlns:svg="http://www.w3.org/2000/svg"
   xmlns="http://www.w3.org/2000/svg"
   xmlns:sodipodi="http://sodipodi.sourceforge.net/DTD/sodipodi-0.dtd"
   xmlns:inkscape="http://www.inkscape.org/namespaces/inkscape"
   version="1.1"
   id="Capa_1"
   x="0px"
   y="0px"
   width="611.979px"
   height="611.979px"
   viewBox="0 0 611.979 611.979"
   style="enable-background:new 0 0 611.979 611.979;"
   xml:space="preserve"
   sodipodi:docname="cross.svg"
   inkscape:version="0.92.3 (2405546, 2018-03-11)"><metadata
   id="metadata41"><rdf:RDF><cc:Work
       rdf:about=""><dc:format>image/svg+xml</dc:format><dc:type
         rdf:resource="http://purl.org/dc/dcmitype/StillImage" /></cc:Work></rdf:RDF></metadata><defs
   id="defs39" /><sodipodi:namedview
   pagecolor="#ffffff"
   bordercolor="#666666"
   borderopacity="1"
   objecttolerance="10"
   gridtolerance="10"
   guidetolerance="10"
   inkscape:pageopacity="0"
   inkscape:pageshadow="2"
   inkscape:window-width="1366"
   inkscape:window-height="705"
   id="namedview37"
   showgrid="false"
   inkscape:zoom="0.38563415"
   inkscape:cx="285.24445"
   inkscape:cy="305.9895"
   inkscape:window-x="-8"
   inkscape:window-y="-8"
   inkscape:window-maximized="1"
   inkscape:current-layer="Capa_1" />
<g
   id="g4"
   style="fill:#969696;fill-opacity:1;stroke:#828282;stroke-opacity:1"
   transform="matrix(0.7,0,0,0.7,91.796596,91.797334)">
	<path
   d="M 356.781,305.982 601.453,61.311 c 14.033,-14.033 14.033,-36.771 0,-50.774 -14.004,-14.033 -36.741,-14.033 -50.774,0 L 306.007,255.208 61.277,10.536 c -14.004,-14.033 -36.771,-14.033 -50.774,0 -14.004,14.004 -14.004,36.742 0,50.774 L 255.204,305.982 10.503,550.684 c -14.004,14.004 -14.004,36.771 0,50.774 7.016,7.017 16.216,10.51 25.387,10.51 9.2,0 18.371,-3.493 25.387,-10.51 L 305.978,356.757 550.649,601.458 c 7.017,7.017 16.217,10.51 25.388,10.51 9.199,0 18.399,-3.493 25.387,-10.51 14.033,-14.033 14.033,-36.771 0,-50.774 z"
   id="path2"
   style="fill:#969696;fill-opacity:1;stroke:#828282;stroke-opacity:1"
   inkscape:connector-curvature="0" />
</g>
<g
   id="g6">
</g>
<g
   id="g8">
</g>
<g
   id="g10">
</g>
<g
   id="g12">
</g>
<g
   id="g14">
</g>
<g
   id="g16">
</g>
<g
   id="g18">
</g>
<g
   id="g20">
</g>
<g
   id="g22">
</g>
<g
   id="g24">
</g>
<g
   id="g26">
</g>
<g
   id="g28">
</g>
<g
   id="g30">
</g>
<g
   id="g32">
</g>
<g
   id="g34">
</g>
</svg>