<?xml version="1.0" encoding="UTF-8" standalone="no"?>
<!-- Generator: Adobe Illustrator 18.1.1, SVG Export Plug-In . SVG Version: 6.00 Build 0)  -->

<svg
   xmlns:dc="http://purl.org/dc/elements/1.1/"
   xmlns:cc="http://creativecommons.org/ns#"
   xmlns:rdf="http://www.w3.org/1999/02/22-rdf-syntax-ns#"
   xmlns:svg="http://www.w3.org/2000/svg"
   xmlns="http://www.w3.org/2000/svg"
   xmlns:sodipodi="http://sodipodi.sourceforge.net/DTD/sodipodi-0.dtd"
   xmlns:inkscape="http://www.inkscape.org/namespaces/inkscape"
   version="1.1"
   id="Capa_1"
   x="0px"
   y="0px"
   viewBox="0 0 535.5 535.5"
   style="enable-background:new 0 0 535.5 535.5;"
   xml:space="preserve"
   sodipodi:docname="move.svg"
   inkscape:version="0.92.3 (2405546, 2018-03-11)"><metadata
   id="metadata43"><rdf:RDF><cc:Work
       rdf:about=""><dc:format>image/svg+xml</dc:format><dc:type
         rdf:resource="http://purl.org/dc/dcmitype/StillImage" /></cc:Work></rdf:RDF></metadata><defs
   id="defs41" /><sodipodi:namedview
   pagecolor="#ffffff"
   bordercolor="#666666"
   borderopacity="1"
   objecttolerance="10"
   gridtolerance="10"
   guidetolerance="10"
   inkscape:pageopacity="0"
   inkscape:pageshadow="2"
   inkscape:window-width="1366"
   inkscape:window-height="705"
   id="namedview39"
   showgrid="false"
   inkscape:zoom="0.44070962"
   inkscape:cx="267.75"
   inkscape:cy="267.75"
   inkscape:window-x="-8"
   inkscape:window-y="-8"
   inkscape:window-maximized="1"
   inkscape:current-layer="Capa_1" />
<g
   id="g6"
   style="fill:#b4b4b4;fill-opacity:1"
   transform="rotate(-90,267.7495,267.75)">
	<g
   id="g4"
   style="fill:#b4b4b4;fill-opacity:1">
		<path
   style="fill:#b4b4b4;fill-opacity:1"
   d="m 439.721,66.708 c 0,8.976 -1.731,17.442 -5.199,25.398 -3.471,7.956 -8.061,14.994 -13.771,21.114 -5.712,6.12 -12.546,10.914 -20.502,14.382 -7.956,3.468 -16.422,5.202 -25.396,5.202 -8.979,0 -17.442,-1.734 -25.398,-5.202 -7.956,-3.468 -14.892,-8.262 -20.808,-14.382 -5.916,-6.12 -10.608,-13.158 -14.076,-21.114 -3.468,-7.956 -5.202,-16.422 -5.202,-25.398 0,-8.976 1.734,-17.544 5.202,-25.704 3.468,-8.16 8.16,-15.3 14.076,-21.42 C 334.563,13.464 341.499,8.67 349.455,5.202 357.411,1.734 365.877,0 374.853,0 c 8.976,0 17.439,1.734 25.396,5.202 7.956,3.468 14.79,8.262 20.502,14.382 5.712,6.12 10.302,13.26 13.771,21.42 3.466,8.16 5.199,16.728 5.199,25.704 z m 0,201.349 c 0,9.383 -1.731,18.053 -5.199,26.01 -3.471,7.955 -8.061,14.891 -13.771,20.807 -5.71,5.916 -12.546,10.609 -20.502,14.076 -7.956,3.469 -16.422,5.203 -25.396,5.203 -8.979,0 -17.442,-1.734 -25.398,-5.203 -7.956,-3.467 -14.892,-8.16 -20.808,-14.076 -5.916,-5.916 -10.608,-12.852 -14.076,-20.807 -3.468,-7.957 -5.202,-16.627 -5.202,-26.01 0,-8.977 1.734,-17.545 5.202,-25.705 3.468,-8.16 8.16,-15.198 14.076,-21.114 5.916,-5.916 12.852,-10.608 20.808,-14.076 7.956,-3.468 16.422,-5.202 25.398,-5.202 8.976,0 17.439,1.734 25.396,5.202 7.956,3.468 14.79,8.16 20.502,14.076 5.712,5.916 10.302,12.954 13.771,21.114 3.466,8.16 5.199,16.728 5.199,25.705 z m -1.836,201.347 c 0,8.979 -1.632,17.34 -4.896,25.092 -3.264,7.752 -7.752,14.484 -13.464,20.195 -5.712,5.713 -12.444,10.201 -20.196,13.465 -7.752,3.264 -15.912,4.896 -24.479,4.896 -8.568,0 -16.729,-1.635 -24.48,-4.896 -7.752,-3.264 -14.484,-7.752 -20.196,-13.465 -5.712,-5.711 -10.198,-12.443 -13.464,-20.195 -3.264,-7.752 -4.896,-16.113 -4.896,-25.092 0,-8.568 1.632,-16.729 4.896,-24.479 3.266,-7.752 7.752,-14.586 13.464,-20.502 5.712,-5.916 12.444,-10.51 20.196,-13.771 7.752,-3.264 15.912,-4.896 24.48,-4.896 8.565,0 16.728,1.633 24.479,4.896 7.751,3.263 14.484,7.854 20.196,13.771 5.712,5.916 10.2,12.75 13.464,20.502 3.264,7.752 4.896,15.911 4.896,24.479 z M 226.134,66.708 c 0,8.976 -1.734,17.442 -5.202,25.398 -3.468,7.956 -8.058,14.994 -13.77,21.114 -5.712,6.12 -12.546,10.914 -20.502,14.382 -7.956,3.468 -16.422,5.202 -25.398,5.202 -8.976,0 -17.442,-1.734 -25.398,-5.202 -7.956,-3.468 -14.892,-8.262 -20.808,-14.382 C 109.14,107.1 104.448,100.062 100.98,92.106 97.512,84.15 95.778,75.684 95.778,66.708 c 0,-8.976 1.734,-17.544 5.202,-25.704 3.468,-8.16 8.16,-15.3 14.076,-21.42 C 120.972,13.464 127.908,8.67 135.864,5.202 143.82,1.734 152.286,0 161.262,0 c 8.976,0 17.442,1.734 25.398,5.202 7.956,3.468 14.79,8.262 20.502,14.382 5.712,6.12 10.302,13.26 13.77,21.42 3.468,8.16 5.202,16.728 5.202,25.704 z m 0,201.349 c 0,9.383 -1.734,18.053 -5.202,26.01 -3.468,7.955 -8.058,14.891 -13.77,20.807 -5.712,5.916 -12.546,10.609 -20.502,14.076 -7.956,3.469 -16.422,5.203 -25.398,5.203 -8.976,0 -17.442,-1.734 -25.398,-5.203 -7.956,-3.467 -14.892,-8.16 -20.808,-14.076 -5.916,-5.916 -10.608,-12.852 -14.076,-20.807 -3.468,-7.957 -5.202,-16.627 -5.202,-26.01 0,-8.977 1.734,-17.545 5.202,-25.705 3.468,-8.16 8.16,-15.198 14.076,-21.114 5.916,-5.916 12.852,-10.608 20.808,-14.076 7.956,-3.468 16.422,-5.202 25.398,-5.202 8.976,0 17.442,1.734 25.398,5.202 7.956,3.468 14.79,8.16 20.502,14.076 5.712,5.916 10.302,12.954 13.77,21.114 3.468,8.16 5.202,16.728 5.202,25.705 z m 0,201.347 c 0,9.383 -1.734,18.053 -5.202,26.01 -3.468,7.955 -8.058,14.895 -13.77,20.811 -5.712,5.916 -12.546,10.605 -20.502,14.076 -7.956,3.467 -16.422,5.199 -25.398,5.199 -8.976,0 -17.442,-1.732 -25.398,-5.199 -7.956,-3.471 -14.892,-8.16 -20.808,-14.076 -5.916,-5.916 -10.608,-12.855 -14.076,-20.811 -3.468,-7.957 -5.202,-16.627 -5.202,-26.01 0,-8.977 1.734,-17.545 5.202,-25.705 3.468,-8.16 8.16,-15.197 14.076,-21.113 5.916,-5.916 12.852,-10.605 20.808,-14.074 7.956,-3.471 16.422,-5.201 25.398,-5.201 8.976,0 17.442,1.73 25.398,5.201 7.956,3.469 14.79,8.158 20.502,14.074 5.712,5.916 10.302,12.953 13.77,21.113 3.468,8.16 5.202,16.729 5.202,25.705 z"
   id="path2"
   inkscape:connector-curvature="0" />
	</g>
</g>
<g
   id="g8">
</g>
<g
   id="g10">
</g>
<g
   id="g12">
</g>
<g
   id="g14">
</g>
<g
   id="g16">
</g>
<g
   id="g18">
</g>
<g
   id="g20">
</g>
<g
   id="g22">
</g>
<g
   id="g24">
</g>
<g
   id="g26">
</g>
<g
   id="g28">
</g>
<g
   id="g30">
</g>
<g
   id="g32">
</g>
<g
   id="g34">
</g>
<g
   id="g36">
</g>
</svg>